<svg xmlns="http://www.w3.org/2000/svg" xmlns:xlink="http://www.w3.org/1999/xlink" version="1.1" x="0px" y="0px" viewBox="0 0 100 125" enable-background="new 0 0 100 100" xml:space="preserve"><g><path fill="#000000" d="M60.147,14.945V26.74c12.766,4.042,22.045,15.997,22.045,30.082c0,17.395-14.149,31.544-31.546,31.544   c-17.394,0-31.545-14.149-31.545-31.544c0-14.085,9.279-26.04,22.043-30.082V14.945C22.022,19.283,7.699,36.405,7.699,56.821   c0,23.681,19.267,42.946,42.947,42.946c23.682,0,42.948-19.266,42.948-42.946C93.595,36.405,79.272,19.283,60.147,14.945z"/><path fill="#000000" d="M50.646,62.521c3.149,0,5.702-2.554,5.702-5.7V5.701C56.349,2.553,53.796,0,50.646,0   c-3.148,0-5.701,2.553-5.701,5.701v51.12C44.946,59.968,47.499,62.521,50.646,62.521z"/></g><text x="0" y="115" fill="#000000" font-size="5px" font-weight="bold" font-family="'Helvetica Neue', Helvetica, Arial-Unicode, Arial, Sans-serif">Created by Jardson Almeida</text><text x="0" y="120" fill="#000000" font-size="5px" font-weight="bold" font-family="'Helvetica Neue', Helvetica, Arial-Unicode, Arial, Sans-serif">from the Noun Project</text></svg>