<svg xmlns="http://www.w3.org/2000/svg" xmlns:xlink="http://www.w3.org/1999/xlink" version="1.1" x="0px" y="0px" viewBox="0 0 90 112.5" enable-background="new 0 0 90 90" xml:space="preserve"><g><g><g><path fill="#000000" d="M29.6,85.5c-15.4,0-28-12.6-28-28s12.6-28,28-28s28,12.6,28,28S45.1,85.5,29.6,85.5z M29.6,32.5     c-13.8,0-25,11.2-25,25s11.2,25,25,25s25-11.2,25-25S43.4,32.5,29.6,32.5z"/><path fill="#000000" d="M29.6,86C13.9,86,1.1,73.2,1.1,57.5S13.9,29,29.6,29s28.5,12.8,28.5,28.5S45.3,86,29.6,86z M29.6,30     C14.4,30,2.1,42.3,2.1,57.5C2.1,72.6,14.4,85,29.6,85s27.5-12.3,27.5-27.5C57.1,42.3,44.8,30,29.6,30z M29.6,83     C15.5,83,4.1,71.5,4.1,57.5S15.5,32,29.6,32s25.5,11.4,25.5,25.5S43.7,83,29.6,83z M29.6,33C16.1,33,5.1,44,5.1,57.5     C5.1,71,16.1,82,29.6,82s24.5-11,24.5-24.5C54.1,44,43.1,33,29.6,33z"/></g></g><g><g><path fill="#000000" d="M61,85.5c-15.4,0-28-12.6-28-28s12.6-28,28-28c15.5,0,28,12.6,28,28S76.5,85.5,61,85.5z M61,32.5     c-13.8,0-25,11.2-25,25s11.2,25,25,25s25-11.2,25-25S74.8,32.5,61,32.5z"/><path fill="#000000" d="M61,86c-15.7,0-28.5-12.8-28.5-28.5S45.3,29,61,29s28.5,12.8,28.5,28.5S76.8,86,61,86z M61,30     c-15.2,0-27.5,12.3-27.5,27.5C33.5,72.6,45.9,85,61,85c15.2,0,27.5-12.3,27.5-27.5C88.6,42.3,76.2,30,61,30z M61,83     C47,83,35.5,71.5,35.5,57.5S47,32,61,32s25.5,11.4,25.5,25.5S75.1,83,61,83z M61,33c-13.5,0-24.5,11-24.5,24.5     C36.5,71,47.5,82,61,82c13.5,0,24.5-11,24.5-24.5C85.6,44,74.6,33,61,33z"/></g></g><g><g><path fill="#000000" d="M44.8,58.7c-15.4,0-28-12.6-28-28s12.6-28,28-28s28,12.6,28,28S60.2,58.7,44.8,58.7z M44.8,5.7     c-13.8,0-25,11.2-25,25s11.2,25,25,25s25-11.2,25-25S58.6,5.7,44.8,5.7z"/><path fill="#000000" d="M44.8,59.2c-15.7,0-28.5-12.8-28.5-28.5S29.1,2.2,44.8,2.2c15.7,0,28.5,12.8,28.5,28.5     S60.5,59.2,44.8,59.2z M44.8,3.2c-15.2,0-27.5,12.3-27.5,27.5s12.3,27.5,27.5,27.5c15.2,0,27.5-12.3,27.5-27.5S60,3.2,44.8,3.2z      M44.8,56.2c-14.1,0-25.5-11.4-25.5-25.5S30.7,5.2,44.8,5.2c14.1,0,25.5,11.4,25.5,25.5S58.9,56.2,44.8,56.2z M44.8,6.2     c-13.5,0-24.5,11-24.5,24.5s11,24.5,24.5,24.5s24.5-11,24.5-24.5S58.3,6.2,44.8,6.2z"/></g></g></g><text x="0" y="105" fill="#000000" font-size="5px" font-weight="bold" font-family="'Helvetica Neue', Helvetica, Arial-Unicode, Arial, Sans-serif">Created by Karsten Barnett</text><text x="0" y="110" fill="#000000" font-size="5px" font-weight="bold" font-family="'Helvetica Neue', Helvetica, Arial-Unicode, Arial, Sans-serif">from the Noun Project</text></svg>