<svg xmlns="http://www.w3.org/2000/svg" xmlns:xlink="http://www.w3.org/1999/xlink" version="1.1" x="0px" y="0px" viewBox="0 0 100 125" enable-background="new 0 0 100 100" xml:space="preserve"><path d="M89.775,65.452c-3.494-1.483-7.417-0.465-9.789,2.24l-7.409-3.144c2.287-8.935-0.977-18.57-8.546-24.214l7.823-13.57  c3.524,0.73,7.268-0.821,9.163-4.109c2.364-4.101,0.956-9.343-3.145-11.707c-4.101-2.364-9.343-0.956-11.707,3.145  c-1.895,3.288-1.361,7.305,1.036,9.989l-7.815,13.556c-4.998-2.172-10.433-2.44-15.412-1.045l-2.851-6.843  c2.721-2.355,3.764-6.271,2.304-9.775c-1.821-4.37-6.839-6.436-11.209-4.616s-6.436,6.839-4.616,11.209  c1.46,3.503,4.975,5.52,8.563,5.247l2.846,6.83c-3.554,1.966-6.647,4.871-8.824,8.647c-2.773,4.81-3.617,10.201-2.78,15.282  l-6.647,1.747c-1.959-3.019-5.695-4.589-9.366-3.624C6.816,61.9,4.08,66.588,5.284,71.166s5.891,7.314,10.469,6.111  c3.67-0.965,6.151-4.17,6.372-7.762l6.782-1.783c1.884,4.518,5.189,8.485,9.758,11.119c0.813,0.468,1.646,0.865,2.487,1.225  c-0.284,1.157-0.745,2.398-1.494,3.59c-2.502,3.978-6.191,6.533-6.191,6.533s13.829-0.408,17.386-8.292  c7.753-0.225,15.214-4.322,19.371-11.534c0.154-0.267,0.274-0.543,0.415-0.813l7.248,3.076c-0.297,3.586,1.697,7.115,5.19,8.597  c4.358,1.849,9.39-0.184,11.239-4.542C96.166,72.334,94.133,67.302,89.775,65.452z"/><text x="0" y="115" fill="#000000" font-size="5px" font-weight="bold" font-family="'Helvetica Neue', Helvetica, Arial-Unicode, Arial, Sans-serif">Created by Patrick Morrison</text><text x="0" y="120" fill="#000000" font-size="5px" font-weight="bold" font-family="'Helvetica Neue', Helvetica, Arial-Unicode, Arial, Sans-serif">from the Noun Project</text></svg>